<?xml version="1.0" encoding="UTF-8"?>
<svg width="114px" height="29px" viewBox="0 0 114 29" version="1.1" xmlns="http://www.w3.org/2000/svg" xmlns:xlink="http://www.w3.org/1999/xlink">
    <!-- Generator: Sketch 39.1 (31720) - http://www.bohemiancoding.com/sketch -->
    <title>icon</title>
    <desc>Created with Sketch.</desc>
    <defs>
        <path d="M68.5736793,13.292 C70.5836793,15.455 65.2626793,18.612 59.0156793,19.221 L56.9196793,29 L54.8256793,19.232 C48.6756793,18.687 43.7886793,15.85 45.2656793,13.292 C46.0286793,11.97 53.4236793,9.996 53.4236793,8.458 C53.4236793,7.008 52.2576793,6.594 52.2576793,6.594 C50.1486793,5.939 48.7616793,4.855 48.7616793,3.625 C48.7616793,1.623 52.4146793,0 56.9196793,0 C61.4246793,0 65.0776793,1.623 65.0776793,3.625 C65.0776793,4.855 63.6906793,5.939 61.5816793,6.594 C61.5816793,6.594 60.4156793,6.909 60.4156793,8.455 C60.4156793,9.99 67.1596793,11.77 68.5736793,13.292 L68.5736793,13.292 Z" id="path-1"></path>
        <mask id="mask-2" maskContentUnits="userSpaceOnUse" maskUnits="objectBoundingBox" x="0" y="0" width="24.0051938" height="29" fill="white">
            <use xlink:href="#path-1"></use>
        </mask>
        <path d="M23.5736793,13.292 C25.5836793,15.455 20.2626793,18.612 14.0156793,19.221 L11.9196793,29 L9.82567931,19.232 C3.67567931,18.687 -1.21132069,15.85 0.265679314,13.292 C1.02867931,11.97 8.42367931,9.996 8.42367931,8.458 C8.42367931,7.008 7.25767931,6.594 7.25767931,6.594 C5.14867931,5.939 3.76167931,4.855 3.76167931,3.625 C3.76167931,1.623 7.41467931,0 11.9196793,0 C16.4246793,0 20.0776793,1.623 20.0776793,3.625 C20.0776793,4.855 18.6906793,5.939 16.5816793,6.594 C16.5816793,6.594 15.4156793,6.909 15.4156793,8.455 C15.4156793,9.99 22.1596793,11.77 23.5736793,13.292 L23.5736793,13.292 Z" id="path-3"></path>
        <mask id="mask-4" maskContentUnits="userSpaceOnUse" maskUnits="objectBoundingBox" x="0" y="0" width="24.0051938" height="29" fill="white">
            <use xlink:href="#path-3"></use>
        </mask>
    </defs>
    <g id="Page-1" stroke="none" stroke-width="1" fill="none" fill-rule="evenodd">
        <g id="icon">
            <use id="Shape" stroke="#3A91F3" mask="url(#mask-2)" stroke-width="2" xlink:href="#path-1"></use>
            <use id="Shape" stroke="#777777" mask="url(#mask-4)" stroke-width="2" xlink:href="#path-3"></use>
            <path d="M113.573679,13.292 C115.583679,15.455 110.262679,18.612 104.015679,19.221 L101.919679,29 L99.8256793,19.232 C93.6756793,18.687 88.7886793,15.85 90.2656793,13.292 C91.0286793,11.97 98.4236793,9.996 98.4236793,8.458 C98.4236793,7.008 97.2576793,6.594 97.2576793,6.594 C95.1486793,5.939 93.7616793,4.855 93.7616793,3.625 C93.7616793,1.623 97.4146793,0 101.919679,0 C106.424679,0 110.077679,1.623 110.077679,3.625 C110.077679,4.855 108.690679,5.939 106.581679,6.594 C106.581679,6.594 105.415679,6.909 105.415679,8.455 C105.415679,9.99 112.159679,11.77 113.573679,13.292 L113.573679,13.292 Z" id="Shape" fill="#3A91F3"></path>
        </g>
    </g>
</svg>