<?xml version="1.0" encoding="UTF-8"?>
<svg width="150px" height="154px" viewBox="0 0 150 154" version="1.1" xmlns="http://www.w3.org/2000/svg" xmlns:xlink="http://www.w3.org/1999/xlink">
    <!-- Generator: Sketch 43.1 (39012) - http://www.bohemiancoding.com/sketch -->
    <title>Artboard</title>
    <desc>Created with Sketch.</desc>
    <defs></defs>
    <g id="Page-1" stroke="none" stroke-width="1" fill="none" fill-rule="evenodd">
        <g id="Artboard">
            <g id="2c" transform="translate(60.000000, 32.000000)">
                <path d="M7.958,7.1 C9.357,6.758 10.4,5.505 10.4,4 C10.4,2.233 8.967,0.8 7.2,0.8 C5.433,0.8 4,2.233 4,4 C4,5.733 5.38,7.136 7.1,7.19 L7.1,8 L4.8,8 C2.591,8 0.8,9.791 0.8,12 L0.8,14.4 L7.1,14.4 L7.1,15.2 L0,15.2 L0,12 C0,9.349 2.149,7.2 4.8,7.2 L4.822,7.2 C3.843,6.471 3.2,5.315 3.2,4 C3.2,1.791 4.991,0 7.2,0 C9.409,0 11.2,1.791 11.2,4 C11.2,5.262 10.599,6.368 9.685,7.1 L7.958,7.1 Z" id="Shape" fill="#3A91F3"></path>
                <path d="M11.4980603,10.3114035 C10.5920603,8.23040354 8.0170603,8.71640354 8.0000603,11.1304035 C7.9900603,12.4574035 9.2260603,12.9524035 10.0490603,13.4824035 C10.8470603,13.9974035 11.4150603,14.7004035 11.5040603,14.9994035 C11.5800603,14.7064035 12.2120603,13.9834035 12.9510603,13.4684035 C13.7590603,12.9054035 15.0100603,12.4424035 15.0000603,11.1164035 C14.9830603,8.69540354 12.3630603,8.31340354 11.4980603,10.3114035 Z" id="Shape" stroke="#3A91F3"></path>
            </g>
            <g id="2b" transform="translate(35.000000, 32.000000)">
                <path d="M7.958,7.1 C9.357,6.758 10.4,5.505 10.4,4 C10.4,2.233 8.967,0.8 7.2,0.8 C5.433,0.8 4,2.233 4,4 C4,5.733 5.38,7.136 7.1,7.19 L7.1,8 L4.8,8 C2.591,8 0.8,9.791 0.8,12 L0.8,14.4 L7.1,14.4 L7.1,15.2 L0,15.2 L0,12 C0,9.349 2.149,7.2 4.8,7.2 L4.822,7.2 C3.843,6.471 3.2,5.315 3.2,4 C3.2,1.791 4.991,0 7.2,0 C9.409,0 11.2,1.791 11.2,4 C11.2,5.262 10.599,6.368 9.685,7.1 L7.958,7.1 Z" id="Shape" fill="#3A91F3"></path>
                <path d="M11.4980603,10.3114035 C10.5920603,8.23040354 8.0170603,8.71640354 8.0000603,11.1304035 C7.9900603,12.4574035 9.2260603,12.9524035 10.0490603,13.4824035 C10.8470603,13.9974035 11.4150603,14.7004035 11.5040603,14.9994035 C11.5800603,14.7064035 12.2120603,13.9834035 12.9510603,13.4684035 C13.7590603,12.9054035 15.0100603,12.4424035 15.0000603,11.1164035 C14.9830603,8.69540354 12.3630603,8.31340354 11.4980603,10.3114035 Z" id="Shape" stroke="#3A91F3"></path>
            </g>
            <g id="2a" transform="translate(10.000000, 32.000000)">
                <path d="M7.958,7.1 C9.357,6.758 10.4,5.505 10.4,4 C10.4,2.233 8.967,0.8 7.2,0.8 C5.433,0.8 4,2.233 4,4 C4,5.733 5.38,7.136 7.1,7.19 L7.1,8 L4.8,8 C2.591,8 0.8,9.791 0.8,12 L0.8,14.4 L7.1,14.4 L7.1,15.2 L0,15.2 L0,12 C0,9.349 2.149,7.2 4.8,7.2 L4.822,7.2 C3.843,6.471 3.2,5.315 3.2,4 C3.2,1.791 4.991,0 7.2,0 C9.409,0 11.2,1.791 11.2,4 C11.2,5.262 10.599,6.368 9.685,7.1 L7.958,7.1 Z" id="Shape" fill="#777777"></path>
                <path d="M11.4980603,10.3114035 C10.5920603,8.23040354 8.0170603,8.71640354 8.0000603,11.1304035 C7.9900603,12.4574035 9.2260603,12.9524035 10.0490603,13.4824035 C10.8470603,13.9974035 11.4150603,14.7004035 11.5040603,14.9994035 C11.5800603,14.7064035 12.2120603,13.9834035 12.9510603,13.4684035 C13.7590603,12.9054035 15.0100603,12.4424035 15.0000603,11.1164035 C14.9830603,8.69540354 12.3630603,8.31340354 11.4980603,10.3114035 Z" id="Shape" stroke="#777777"></path>
            </g>
            <g id="1c" transform="translate(60.000000, 11.000000)" fill="#3A91F3">
                <path d="M7.958,7.1 C9.357,6.758 10.4,5.505 10.4,4 C10.4,2.233 8.967,0.8 7.2,0.8 C5.433,0.8 4,2.233 4,4 C4,5.733 5.38,7.136 7.1,7.19 L7.1,8 L4.8,8 C2.591,8 0.8,9.791 0.8,12 L0.8,14.4 L7.1,14.4 L7.1,15.2 L0,15.2 L0,12 C0,9.349 2.149,7.2 4.8,7.2 L4.822,7.2 C3.843,6.471 3.2,5.315 3.2,4 C3.2,1.791 4.991,0 7.2,0 C9.409,0 11.2,1.791 11.2,4 C11.2,5.262 10.599,6.368 9.685,7.1 L7.958,7.1 Z M13.6,12.1 L11.1,12.1 L11.1,14.6 C11.1,14.876 10.876,15.1 10.6,15.1 C10.324,15.1 10.1,14.876 10.1,14.6 L10.1,12.1 L7.6,12.1 C7.324,12.1 7.1,11.876 7.1,11.6 C7.1,11.324 7.324,11.1 7.6,11.1 L10.1,11.1 L10.1,8.6 C10.1,8.324 10.324,8.1 10.6,8.1 C10.876,8.1 11.1,8.324 11.1,8.6 L11.1,11.1 L13.6,11.1 C13.876,11.1 14.1,11.324 14.1,11.6 C14.1,11.876 13.876,12.1 13.6,12.1 Z" id="Combined-Shape"></path>
            </g>
            <g id="1b" transform="translate(35.000000, 11.000000)" fill="#3A91F3">
                <path d="M7.958,7.1 C9.357,6.758 10.4,5.505 10.4,4 C10.4,2.233 8.967,0.8 7.2,0.8 C5.433,0.8 4,2.233 4,4 C4,5.733 5.38,7.136 7.1,7.19 L7.1,8 L4.8,8 C2.591,8 0.8,9.791 0.8,12 L0.8,14.4 L7.1,14.4 L7.1,15.2 L0,15.2 L0,12 C0,9.349 2.149,7.2 4.8,7.2 L4.822,7.2 C3.843,6.471 3.2,5.315 3.2,4 C3.2,1.791 4.991,0 7.2,0 C9.409,0 11.2,1.791 11.2,4 C11.2,5.262 10.599,6.368 9.685,7.1 L7.958,7.1 Z M13.6,12.1 L11.1,12.1 L11.1,14.6 C11.1,14.876 10.876,15.1 10.6,15.1 C10.324,15.1 10.1,14.876 10.1,14.6 L10.1,12.1 L7.6,12.1 C7.324,12.1 7.1,11.876 7.1,11.6 C7.1,11.324 7.324,11.1 7.6,11.1 L10.1,11.1 L10.1,8.6 C10.1,8.324 10.324,8.1 10.6,8.1 C10.876,8.1 11.1,8.324 11.1,8.6 L11.1,11.1 L13.6,11.1 C13.876,11.1 14.1,11.324 14.1,11.6 C14.1,11.876 13.876,12.1 13.6,12.1 Z" id="Combined-Shape"></path>
            </g>
            <g id="1a" transform="translate(10.000000, 11.000000)" fill="#777777">
                <path d="M7.958,7.1 C9.357,6.758 10.4,5.505 10.4,4 C10.4,2.233 8.967,0.8 7.2,0.8 C5.433,0.8 4,2.233 4,4 C4,5.733 5.38,7.136 7.1,7.19 L7.1,8 L4.8,8 C2.591,8 0.8,9.791 0.8,12 L0.8,14.4 L7.1,14.4 L7.1,15.2 L0,15.2 L0,12 C0,9.349 2.149,7.2 4.8,7.2 L4.822,7.2 C3.843,6.471 3.2,5.315 3.2,4 C3.2,1.791 4.991,0 7.2,0 C9.409,0 11.2,1.791 11.2,4 C11.2,5.262 10.599,6.368 9.685,7.1 L7.958,7.1 Z" id="Shape"></path>
                <path d="M13.6,12.1 L11.1,12.1 L11.1,14.6 C11.1,14.876 10.876,15.1 10.6,15.1 C10.324,15.1 10.1,14.876 10.1,14.6 L10.1,12.1 L7.6,12.1 C7.324,12.1 7.1,11.876 7.1,11.6 C7.1,11.324 7.324,11.1 7.6,11.1 L10.1,11.1 L10.1,8.6 C10.1,8.324 10.324,8.1 10.6,8.1 C10.876,8.1 11.1,8.324 11.1,8.6 L11.1,11.1 L13.6,11.1 C13.876,11.1 14.1,11.324 14.1,11.6 C14.1,11.876 13.876,12.1 13.6,12.1 Z" id="Shape"></path>
            </g>
        </g>
    </g>
</svg>